<?xml version="1.0" encoding="utf-8"?>
<!-- Generator: Adobe Illustrator 27.2.0, SVG Export Plug-In . SVG Version: 6.00 Build 0)  -->
<svg version="1.1" id="Layer_1" xmlns="http://www.w3.org/2000/svg" xmlns:xlink="http://www.w3.org/1999/xlink" x="0px" y="0px"
	 viewBox="0 0 577 577" style="enable-background:new 0 0 577 577;" xml:space="preserve">
<style type="text/css">
	.st0{fill:#F1583A;}
</style>
<g>
	<path class="st0" d="M491,355.3l-158.6,0c-2.6,0-4.2,2.9-2.8,5C355,399.7,400.7,426,452.9,426h120.9c1.8,0,3.2-1.4,3.2-3.2v-64.3
		c0-1.8-1.4-3.2-3.2-3.2L491,355.3L491,355.3z"/>
	<path class="st0" d="M330,215.6c-1.6,2.4,0.2,5.7,3.2,5.7l121.3,0H491h82.3c2.1,0,3.7-1.7,3.7-3.7v-63.7c0-1.8-1.5-3.3-3.3-3.3
		H452.9C400.9,150.6,355.5,176.6,330,215.6z"/>
	<g>
		<path class="st0" d="M86.8,221.3l158.6,0c2.6,0,4.2-2.9,2.8-5c-25.5-39.3-71.1-65.6-123.3-65.6H4c-1.8,0-3.2,1.4-3.2,3.2v64.3
			c0,1.8,1.4,3.2,3.2,3.2L86.8,221.3L86.8,221.3z"/>
		<path class="st0" d="M247.8,361c1.6-2.4-0.2-5.7-3.2-5.7l-121.3,0H86.8H4.5c-2.1,0-3.7,1.7-3.7,3.7v63.7c0,1.8,1.5,3.3,3.3,3.3
			h120.9C176.8,426,222.2,400,247.8,361z"/>
	</g>
	<path class="st0" d="M434.3,322.1H150.7c-2.8,0-5-2.3-5-5v-57.4c0-2.8,2.3-5,5-5h283.6c2.8,0,5,2.3,5,5V317
		C439.3,319.8,437.1,322.1,434.3,322.1z"/>
</g>
</svg>
