<?xml version="1.0" encoding="utf-8"?>
<!-- Generator: Adobe Illustrator 27.2.0, SVG Export Plug-In . SVG Version: 6.00 Build 0)  -->
<svg version="1.1" id="Layer_1" xmlns="http://www.w3.org/2000/svg" xmlns:xlink="http://www.w3.org/1999/xlink" x="0px" y="0px"
	 viewBox="0 0 24 40" style="enable-background:new 0 0 24 40;" xml:space="preserve">
<style type="text/css">
	.st0{fill:#D1D5DB;}
</style>
<g>
	<path class="st0" d="M6.1,25c0.1,1,0.9,1.7,1.8,1.7s1.8-0.7,1.8-1.7v-1.3H6.1V25z"/>
	<path class="st0" d="M16,26.7c1,0,1.8-0.7,1.8-1.7v-1.3h-3.7V25C14.3,25.9,15.1,26.7,16,26.7z"/>
	<polygon class="st0" points="12,14.2 8.2,13.6 6.9,19.3 17.1,19.3 15.8,13.5 	"/>
	<path class="st0" d="M12,8C5.4,8,0,13.4,0,20s5.4,12,12,12s12-5.4,12-12S18.6,8,12,8z M19.3,25c-0.1,1.8-1.5,3.2-3.3,3.2
		c-1.7-0.1-3-1.3-3.3-3h-1.5c-0.2,1.7-1.6,2.9-3.3,3c-1.8,0-3.2-1.4-3.3-3.2v-2.7h6.6v1.5h1.5v-1.5h6.6V25z M20.1,20.8H3.9v-1.5h1.5
		L7,11.9l5,0.8l5-0.8l1.7,7.4h1.5V20.8z"/>
</g>
</svg>
