<?xml version="1.0" encoding="utf-8"?>
<!-- Generator: Adobe Illustrator 27.2.0, SVG Export Plug-In . SVG Version: 6.00 Build 0)  -->
<svg version="1.1" id="Layer_1" xmlns="http://www.w3.org/2000/svg" xmlns:xlink="http://www.w3.org/1999/xlink" x="0px" y="0px"
	 viewBox="0 0 24 24" style="enable-background:new 0 0 24 24;" xml:space="preserve">
<style type="text/css">
	.st0{fill:#FFFFFF;}
</style>
<path class="st0" d="M12,0C5.4,0,0,5.4,0,12c0,6.6,5.4,12,12,12s12-5.4,12-12C24,5.4,18.6,0,12,0z M8.4,6.6l2.8-2.8
	c0.2-0.2,0.5-0.3,0.8-0.3c0,0,0,0,0,0c0,0,0,0,0,0c0,0,0,0,0,0c0.3,0,0.6,0.1,0.8,0.3l2.8,2.8c0.1,0.1,0.1,0.4,0,0.5
	c-0.1,0.1-0.2,0.1-0.2,0.1s-0.2,0-0.2-0.1l-2.8-2.8v10.3c0,0.2-0.2,0.4-0.4,0.4s-0.4-0.2-0.4-0.4V4.3L8.9,7.1
	c-0.1,0.1-0.4,0.1-0.5,0C8.2,6.9,8.2,6.7,8.4,6.6z M19.8,16.6c0,1.3-1,2.4-2.1,2.4H6.4c-1.2,0-2.1-1.1-2.1-2.4v-2
	c0-0.2,0.2-0.4,0.4-0.4s0.4,0.2,0.4,0.4v2c0,0.9,0.6,1.7,1.4,1.7h11.3c0.8,0,1.4-0.8,1.4-1.7v-2c0-0.2,0.2-0.4,0.4-0.4
	s0.4,0.2,0.4,0.4V16.6z"/>
</svg>
