<?xml version="1.0" encoding="utf-8"?>
<!-- Generator: Adobe Illustrator 27.2.0, SVG Export Plug-In . SVG Version: 6.00 Build 0)  -->
<svg version="1.1" id="Layer_1" xmlns="http://www.w3.org/2000/svg" xmlns:xlink="http://www.w3.org/1999/xlink" x="0px" y="0px"
	 viewBox="0 0 24 30" style="enable-background:new 0 0 24 30;" xml:space="preserve">
<style type="text/css">
	.st0{fill:#FFFFFF;}
</style>
<g>
	<path class="st0" d="M12,5.5c-5.2,0-9.5,4.2-9.5,9.5s4.2,9.5,9.5,9.5s9.5-4.2,9.5-9.5S17.2,5.5,12,5.5z M18.8,16.3l-0.6,0.1
		c-0.1,0-0.1,0.1-0.2,0.1l-0.7,1.7c0,0.1,0,0.1,0,0.2l0.3,0.5c0.1,0.2,0.1,0.5-0.1,0.6l-1.2,1.2c-0.2,0.2-0.4,0.2-0.6,0.1l-0.5-0.3
		c-0.1,0-0.1,0-0.2,0l-1.7,0.7c-0.1,0-0.1,0.1-0.1,0.2l-0.1,0.6c0,0.2-0.2,0.4-0.5,0.4h-1.7c-0.2,0-0.4-0.2-0.5-0.4l-0.1-0.6
		c0-0.1-0.1-0.1-0.1-0.2l-1.7-0.7c0,0-0.1,0-0.1,0c0,0-0.1,0-0.1,0l-0.5,0.3c-0.2,0.1-0.5,0.1-0.6-0.1l-1.2-1.2
		c-0.2-0.2-0.2-0.4-0.1-0.6l0.3-0.5c0-0.1,0-0.1,0-0.2l-0.7-1.7c0-0.1-0.1-0.1-0.2-0.1l-0.6-0.1c-0.2,0-0.4-0.2-0.4-0.5v-1.7
		c0-0.2,0.2-0.4,0.4-0.5l0.6-0.1c0.1,0,0.1-0.1,0.2-0.1l0.7-1.7c0-0.1,0-0.1,0-0.2l-0.3-0.5c-0.1-0.2-0.1-0.5,0.1-0.6l1.2-1.2
		c0.2-0.2,0.4-0.2,0.6-0.1l0.5,0.3c0.1,0,0.1,0,0.2,0l1.7-0.7c0.1,0,0.1-0.1,0.1-0.2l0.1-0.6c0-0.2,0.2-0.4,0.5-0.4h1.7
		c0.2,0,0.4,0.2,0.5,0.4l0.1,0.6c0,0.1,0.1,0.1,0.1,0.2l1.7,0.7c0.1,0,0.1,0,0.2,0l0.5-0.3c0.2-0.1,0.5-0.1,0.6,0.1l1.2,1.2
		c0.2,0.2,0.2,0.4,0.1,0.6l-0.3,0.5c0,0.1,0,0.1,0,0.2l0.7,1.7c0,0.1,0.1,0.1,0.2,0.1l0.6,0.1c0.2,0,0.4,0.2,0.4,0.5v1.7
		C19.2,16.1,19,16.3,18.8,16.3z"/>
	<path class="st0" d="M9.1,12.2c0,0,0.1,0,0.1-0.1C10,11.4,11,11,12.1,11c0.7,0,1.5,0.2,2.1,0.6C14.1,11.7,14,11.9,14,12
		c0,0.5,0.4,1,1,1c0.5,0,1-0.4,1-1c0-0.5-0.4-1-1-1c-0.2,0-0.5,0.1-0.6,0.2c-0.7-0.4-1.5-0.7-2.3-0.7c-1.2,0-2.3,0.5-3.1,1.3
		c-0.1,0.1-0.1,0.2,0,0.3C9,12.2,9,12.2,9.1,12.2z M15,11.4c0.3,0,0.6,0.3,0.6,0.6c0,0.3-0.3,0.6-0.6,0.6c-0.3,0-0.6-0.3-0.6-0.6
		C14.4,11.7,14.7,11.4,15,11.4z"/>
	<path class="st0" d="M11,18.9c-1-0.3-1.9-0.9-2.4-1.9c-0.4-0.6-0.6-1.4-0.5-2.1c0.1,0,0.3,0,0.4-0.1c0.5-0.3,0.6-0.9,0.4-1.4
		c-0.3-0.5-0.9-0.6-1.4-0.4c-0.5,0.3-0.6,0.9-0.4,1.4c0.1,0.2,0.3,0.4,0.5,0.4c0,0.8,0.2,1.6,0.6,2.3c0.6,1,1.5,1.7,2.7,2
		c0,0,0,0,0.1,0c0.1,0,0.2-0.1,0.2-0.1C11.2,19,11.1,18.9,11,18.9z M7.5,14.2c-0.2-0.3-0.1-0.7,0.2-0.8c0,0,0,0,0,0
		c0.1-0.1,0.2-0.1,0.3-0.1c0.2,0,0.4,0.1,0.5,0.3c0.2,0.3,0.1,0.7-0.2,0.8C8,14.6,7.6,14.5,7.5,14.2z"/>
	<path class="st0" d="M16,13.7c-0.1,0-0.2,0.1-0.1,0.2c0.3,1,0.1,2.1-0.4,3c-0.4,0.6-0.9,1.2-1.5,1.5c-0.1-0.1-0.2-0.2-0.3-0.3
		c-0.2-0.1-0.5-0.2-0.8-0.1c-0.3,0.1-0.5,0.2-0.6,0.5c-0.1,0.2-0.2,0.5-0.1,0.8c0.1,0.3,0.2,0.5,0.5,0.6h0c0.2,0.1,0.3,0.1,0.5,0.1
		c0.1,0,0.2,0,0.3,0c0.3-0.1,0.5-0.2,0.6-0.5c0.1-0.2,0.2-0.5,0.1-0.7c0.7-0.4,1.3-1,1.7-1.7c0.6-1,0.7-2.2,0.4-3.3
		C16.3,13.8,16.2,13.7,16,13.7z M13.7,19.4c-0.1,0.1-0.2,0.2-0.4,0.3c-0.2,0-0.3,0-0.5-0.1h0c-0.1-0.1-0.2-0.2-0.3-0.4
		c0-0.2,0-0.3,0.1-0.5c0.1-0.1,0.2-0.2,0.4-0.3c0.2,0,0.3,0,0.5,0.1c0.1,0.1,0.2,0.2,0.3,0.4C13.8,19.1,13.7,19.2,13.7,19.4z"/>
	<path class="st0" d="M14.1,16.3c0.1,0,0.1-0.1,0.1-0.2l0-2.2c0,0,0,0,0,0c0,0,0-0.1,0-0.1c0,0,0,0-0.1-0.1c0,0,0,0,0,0l-1.9-1.1
		c-0.1,0-0.1,0-0.2,0L10,13.7c0,0,0,0,0,0c0,0,0,0-0.1,0.1c0,0,0,0,0,0c0,0,0,0.1,0,0.1c0,0,0,0,0,0l0,2.2c0,0.1,0,0.1,0.1,0.2
		l1.9,1.1c0,0,0,0,0,0c0,0,0.1,0,0.1,0c0,0,0,0,0,0c0,0,0,0,0,0c0,0,0,0,0,0c0,0,0.1,0,0.1,0c0,0,0,0,0,0L14.1,16.3z M13.8,16
		l-1.5,0.9v-1.8l1.5-0.9L13.8,16z M11.9,16.9L10.3,16l0-1.8l1.5,0.9V16.9z M12.1,14.8l-1.5-0.9l1.5-0.9l1.5,0.9L12.1,14.8z"/>
</g>
</svg>
