<?xml version="1.0" encoding="utf-8"?>
<!-- Generator: Adobe Illustrator 27.2.0, SVG Export Plug-In . SVG Version: 6.00 Build 0)  -->
<svg version="1.1" id="Layer_1" xmlns="http://www.w3.org/2000/svg" xmlns:xlink="http://www.w3.org/1999/xlink" x="0px" y="0px"
	 viewBox="0 0 24 40" style="enable-background:new 0 0 24 40;" xml:space="preserve">
<style type="text/css">
	.st0{fill:#FFFFFF;}
</style>
<g>
	<path class="st0" d="M16.7,18.5c-0.1-0.3-0.2-0.5-0.3-0.8l-0.2-0.4l1.3-1.6l-1.2-1.2l-1.6,1.3l-0.4-0.2c-0.2-0.1-0.5-0.2-0.8-0.3
		L13,15.1l-0.2-2h-1.7l-0.2,2l-0.5,0.2c-0.3,0.1-0.5,0.2-0.8,0.3l-0.4,0.2l-1.5-1.3l-1.2,1.2l1.3,1.6l-0.2,0.4
		c-0.1,0.2-0.2,0.5-0.3,0.8L7.1,19l-2,0.2v1.7l2,0.2l0.2,0.5c0.1,0.3,0.2,0.5,0.3,0.8l0.2,0.4l-1.3,1.6l1.2,1.2l1.6-1.3l0.4,0.2
		c0.2,0.1,0.5,0.2,0.8,0.3l0.5,0.2l0.2,2h1.7l0.2-2l0.5-0.2c0.3-0.1,0.5-0.2,0.8-0.3l0.4-0.2l1.6,1.3l1.2-1.2l-1.3-1.6l0.2-0.4
		c0.1-0.2,0.2-0.5,0.3-0.8l0.2-0.5l2-0.2v-1.7l-2-0.2L16.7,18.5z M14.2,22.2c-0.6,0.6-1.3,0.9-2.2,0.9c-1.7,0-3.1-1.4-3.1-3.1
		s1.4-3.1,3.1-3.1s3.1,1.4,3.1,3.1C15.1,20.8,14.7,21.6,14.2,22.2z"/>
	<path class="st0" d="M12,8C5.4,8,0,13.4,0,20s5.4,12,12,12s12-5.4,12-12S18.6,8,12,8z M20.4,22.2L18,22.5l0,0.1l1.5,1.9l-3.1,3.1
		L14.5,26l-0.1,0l-0.2,2.4H9.8L9.5,26l-0.1,0l-1.9,1.5l-3.1-3.1L6,22.5l0-0.1l-2.4-0.2v-4.4L6,17.5l0-0.1l-1.5-1.9l3.1-3.1L9.5,14
		l0.1,0l0.2-2.4h4.4l0.2,2.4l0.1,0l1.9-1.5l3.1,3.1L18,17.5l0,0.1l2.4,0.2V22.2z"/>
	<circle class="st0" cx="12" cy="20" r="1.5"/>
</g>
</svg>
