<?xml version="1.0" encoding="utf-8"?>
<!-- Generator: Adobe Illustrator 27.2.0, SVG Export Plug-In . SVG Version: 6.00 Build 0)  -->
<svg version="1.1" id="Layer_1" xmlns="http://www.w3.org/2000/svg" xmlns:xlink="http://www.w3.org/1999/xlink" x="0px" y="0px"
	 viewBox="0 0 24 40" style="enable-background:new 0 0 24 40;" xml:space="preserve">
<style type="text/css">
	.st0{fill:#D1D5DB;}
</style>
<path class="st0" d="M11.9,9.3c-5.6,0-10.1,4.5-10.1,10.1s4.5,10.1,10.1,10.1S22,25,22,19.5S17.5,9.3,11.9,9.3z M18.1,13.4
	c0,0.4-0.3,0.7-0.7,0.7c-0.1,0-0.3,0-0.4-0.1c0,0,0,0,0,0l-1.5,1c0,0.1,0,0.1,0.1,0.2c0,0,0,0.1,0,0.1c0,0.4-0.3,0.7-0.7,0.7
	c-0.4,0-0.7-0.3-0.7-0.7c0,0,0,0,0-0.1c0-0.1,0-0.1,0.1-0.2l-1.5-1c0,0.1-0.1,0.1-0.1,0.2c-0.1,0.2-0.3,0.3-0.5,0.3
	s-0.4-0.1-0.6-0.3c0,0,0-0.1-0.1-0.1L7,16.5c0,0.1,0,0.1,0.1,0.2c0,0,0,0,0,0.1c0,0.4-0.3,0.7-0.7,0.7c-0.4,0-0.7-0.3-0.7-0.7
	S5.9,16,6.3,16c0.2,0,0.3,0.1,0.5,0.2l4.5-2.4c0,0,0,0,0,0c0-0.4,0.3-0.7,0.7-0.7c0.4,0,0.7,0.3,0.7,0.6c0,0,0,0,0,0l1.6,1
	c0.1-0.1,0.3-0.2,0.5-0.2c0.2,0,0.3,0.1,0.4,0.2l1.5-1c0,0,0,0,0-0.1c0-0.1,0-0.2,0-0.3c0-0.4,0.3-0.7,0.7-0.7S18.1,13,18.1,13.4
	L18.1,13.4z M18.1,17.7v4c0,0.1-0.1,0.2-0.2,0.2h-1.7c-0.1,0-0.2-0.1-0.2-0.2v-4c0-0.1,0.1-0.2,0.2-0.2H18
	C18.1,17.6,18.1,17.6,18.1,17.7z M15.5,19.9v1.8c0,0.1-0.1,0.2-0.2,0.2h-1.7c-0.1,0-0.2-0.1-0.2-0.2v-1.8c0-0.1,0.1-0.2,0.2-0.2h1.7
	C15.5,19.7,15.5,19.8,15.5,19.9z M12.7,15.6v6.1c0,0.1-0.1,0.2-0.2,0.2h-1.7c-0.1,0-0.2-0.1-0.2-0.2v-6.1c0-0.1,0.1-0.2,0.2-0.2h1.7
	C12.6,15.5,12.7,15.6,12.7,15.6L12.7,15.6z M10.2,17.7v4c0,0.1-0.1,0.2-0.2,0.2H8.3c-0.1,0-0.2-0.1-0.2-0.2v-4
	c0-0.1,0.1-0.2,0.2-0.2H10C10.1,17.6,10.2,17.6,10.2,17.7z M5.6,19.9c0-0.1,0.1-0.2,0.2-0.2h1.7c0.1,0,0.2,0.1,0.2,0.2v1.8
	c0,0.1-0.1,0.2-0.2,0.2H5.7c-0.1,0-0.2-0.1-0.2-0.2C5.6,21.7,5.6,19.9,5.6,19.9z M5.7,22.4H18c0.1,0,0.2,0.1,0.2,0.2
	s-0.1,0.2-0.2,0.2H5.7c-0.1,0-0.2-0.1-0.2-0.2S5.6,22.4,5.7,22.4z M5.6,25.3v-2c0-0.1,0.1-0.2,0.2-0.2c0.1,0,0.2,0.1,0.2,0.2v2
	c0,0.1-0.1,0.2-0.2,0.2C5.6,25.5,5.6,25.4,5.6,25.3z M6.9,25.3v-2c0-0.1,0.1-0.2,0.2-0.2c0.1,0,0.2,0.1,0.2,0.2v2
	c0,0.1-0.1,0.2-0.2,0.2C7,25.5,6.9,25.4,6.9,25.3z M8.3,25.3v-2c0-0.1,0.1-0.2,0.2-0.2s0.2,0.1,0.2,0.2v2c0,0.1-0.1,0.2-0.2,0.2
	S8.3,25.4,8.3,25.3z M9.7,25.3v-2c0-0.1,0.1-0.2,0.2-0.2s0.2,0.1,0.2,0.2v2c0,0.1-0.1,0.2-0.2,0.2S9.7,25.4,9.7,25.3z M11.1,25.3v-2
	c0-0.1,0.1-0.2,0.2-0.2s0.2,0.1,0.2,0.2v2c0,0.1-0.1,0.2-0.2,0.2S11.1,25.4,11.1,25.3z M12.4,25.3v-2c0-0.1,0.1-0.2,0.2-0.2
	c0.1,0,0.2,0.1,0.2,0.2v2c0,0.1-0.1,0.2-0.2,0.2C12.5,25.5,12.4,25.4,12.4,25.3z M13.8,25.3v-2c0-0.1,0.1-0.2,0.2-0.2
	c0.1,0,0.2,0.1,0.2,0.2v2c0,0.1-0.1,0.2-0.2,0.2C13.9,25.5,13.8,25.4,13.8,25.3z M15.2,25.3v-2c0-0.1,0.1-0.2,0.2-0.2
	c0.1,0,0.2,0.1,0.2,0.2v2c0,0.1-0.1,0.2-0.2,0.2C15.3,25.5,15.2,25.4,15.2,25.3z M16.6,25.3v-2c0-0.1,0.1-0.2,0.2-0.2
	s0.2,0.1,0.2,0.2v2c0,0.1-0.1,0.2-0.2,0.2S16.6,25.4,16.6,25.3z M18.3,25.3c0,0.1-0.1,0.2-0.2,0.2S18,25.4,18,25.3v-2
	c0-0.1,0.1-0.2,0.2-0.2s0.2,0.1,0.2,0.2V25.3z"/>
</svg>
