<?xml version="1.0" encoding="utf-8"?>
<!-- Generator: Adobe Illustrator 27.2.0, SVG Export Plug-In . SVG Version: 6.00 Build 0)  -->
<svg version="1.1" id="Layer_1" xmlns="http://www.w3.org/2000/svg" xmlns:xlink="http://www.w3.org/1999/xlink" x="0px" y="0px"
	 viewBox="0 0 24 24" style="enable-background:new 0 0 24 24;" xml:space="preserve">
<style type="text/css">
	.st0{fill:#FFFFFF;}
</style>
<path class="st0" d="M12,0C5.4,0,0,5.4,0,12s5.4,12,12,12s12-5.4,12-12S18.6,0,12,0z M8.4,10.8c0.1-0.1,0.4-0.1,0.5,0l2.8,2.8V3.3
	C11.6,3.1,11.8,3,12,3c0.2,0,0.4,0.2,0.4,0.4v10.3l2.8-2.8c0.1-0.1,0.4-0.1,0.5,0c0.1,0.1,0.1,0.4,0,0.5l-2.8,2.8
	c-0.2,0.2-0.5,0.3-0.8,0.3c0,0,0,0,0,0c0,0,0,0,0,0c0,0,0,0,0,0c-0.3,0-0.6-0.1-0.8-0.3l-2.8-2.8C8.2,11.2,8.2,11,8.4,10.8z
	 M19.8,16.2c0,1.3-1,2.4-2.1,2.4H6.4c-1.2,0-2.1-1.1-2.1-2.4v-2c0-0.2,0.2-0.4,0.4-0.4s0.4,0.2,0.4,0.4v2c0,0.9,0.6,1.7,1.4,1.7
	h11.3c0.8,0,1.4-0.8,1.4-1.7v-2c0-0.2,0.2-0.4,0.4-0.4c0.2,0,0.4,0.2,0.4,0.4V16.2z"/>
</svg>
